<?xml version="1.0" encoding="UTF-8"?>
<svg id="Layer_1" xmlns="http://www.w3.org/2000/svg" width="224" height="120" version="1.1" viewBox="0 0 164.32 75.53">
  <!-- Generator: Adobe Illustrator 29.8.0, SVG Export Plug-In . SVG Version: 2.1.1 Build 160)  -->
  <defs>
    <style>
      .st0 {
        font-family: Roboto-Medium, Roboto;
        font-size: 7.96px;
        font-weight: 500;
      }

      .st0, .st1 {
        fill: #788993;
      }

      .st2 {
        fill: #9bdbf1;
      }

      .st3 {
        fill: #231f20;
      }

      .st4 {
        fill: #fff;
      }

      .st5 {
        fill: #f04923;
      }

      .st6 {
        fill: #f6926a;
      }

      .st7 {
        fill: #1c3849;
      }
    </style>
  </defs>
  <rect class="st1" x="31.42" y="45.63" width="121.47" height=".2"/>
  <g>
    <path class="st7" d="M29.32,21.78v-.05c0-5.28,3.98-9.6,9.68-9.6,3.5,0,5.6,1.17,7.32,2.86l-2.6,3c-1.43-1.3-2.89-2.09-4.75-2.09-3.13,0-5.38,2.6-5.38,5.78v.05c0,3.18,2.2,5.83,5.38,5.83,2.12,0,3.42-.85,4.88-2.17l2.6,2.63c-1.91,2.04-4.03,3.31-7.61,3.31-5.46,0-9.52-4.22-9.52-9.55Z"/>
    <path class="st7" d="M47.56,21.78v-.05c0-5.28,4.16-9.6,9.89-9.6s9.84,4.27,9.84,9.55v.05c0,5.28-4.16,9.6-9.89,9.6s-9.84-4.27-9.84-9.55ZM63.02,21.78v-.05c0-3.18-2.33-5.83-5.62-5.83s-5.57,2.6-5.57,5.78v.05c0,3.18,2.33,5.83,5.62,5.83s5.57-2.6,5.57-5.78Z"/>
    <path class="st7" d="M69.84,23.05v-10.61h4.08v10.5c0,3.02,1.51,4.59,4,4.59s4-1.51,4-4.46v-10.63h4.08v10.47c0,5.62-3.16,8.38-8.14,8.38s-8.03-2.78-8.03-8.25Z"/>
    <path class="st7" d="M88.11,28.3l2.41-2.89c1.67,1.38,3.42,2.25,5.54,2.25,1.67,0,2.68-.66,2.68-1.75v-.05c0-1.03-.64-1.56-3.74-2.36-3.74-.95-6.15-1.99-6.15-5.67v-.05c0-3.37,2.71-5.6,6.5-5.6,2.71,0,5.01.85,6.89,2.36l-2.12,3.08c-1.64-1.14-3.26-1.83-4.83-1.83s-2.39.72-2.39,1.62v.05c0,1.22.8,1.62,4,2.44,3.77.98,5.89,2.33,5.89,5.57v.05c0,3.69-2.81,5.75-6.81,5.75-2.81,0-5.65-.98-7.88-2.97Z"/>
    <path class="st7" d="M105.74,12.44h4.08v18.56h-4.08V12.44Z"/>
    <path class="st7" d="M113.67,12.44h3.77l8.7,11.43v-11.43h4.03v18.56h-3.47l-8.99-11.8v11.8h-4.03V12.44Z"/>
    <path class="st7" d="M133,21.78v-.05c0-5.28,4.16-9.6,9.89-9.6s9.84,4.27,9.84,9.55v.05c0,5.28-4.16,9.6-9.89,9.6s-9.84-4.27-9.84-9.55ZM148.46,21.78v-.05c0-3.18-2.33-5.83-5.62-5.83s-5.57,2.6-5.57,5.78v.05c0,3.18,2.33,5.83,5.62,5.83s5.57-2.6,5.57-5.78Z"/>
  </g>
  <g>
    <path class="st2" d="M14.18,41.71s-3.73-1.14-3.65-4.74c.09-3.6,3.51-5.58,4.83-6.24,1.32-.66,6.24-2.42,6.77-6.54,0,0,3.12,2.28,3.51,6.72.4,4.44-1.67,7.73-1.67,7.73,0,0-2.9,5.23-9.8,3.07Z"/>
    <path class="st5" d="M9.59,39.82s-3.12-5.23,2.15-8.96c5.27-3.73,8.35-3.34,8.61-8.74.26-5.4-3.78-6.15-.35-11.42,0,0-6.06.31-5.8,7.12,0,0-.13-4.08-4.96-4,0,0,4.74,3.73-.18,7.73,0,0-2.2-1.98-.53-3.78,0,0-5.75,1.71-5.93,10.28-.18,8.57,4.17,11.2,6.98,11.77Z"/>
    <path class="st6" d="M6.52,35.17s-1.85-5.45,3.69-8.26c5.53-2.81,8.74-3.38,6.76-8,0,0,.79,2.94-3.25,3.65,0,0,1.41-1.8-.44-3.43,0,0,.66,3.12-4.17,4.96-4.83,1.84-4.88,8.43-2.59,11.07Z"/>
    <path class="st4" d="M21.74,29.14s-4.05,2.78-6.07,3.54c-2.02.76-2.53,3.12-.42,3.2,2.11.08,5.82-2.36,6.49-6.75Z"/>
  </g>
  <g>
    <path class="st3" d="M151.73,13.91v-.23h1.62v.23h-.68v1.8h-.27v-1.8h-.68Z"/>
    <path class="st3" d="M153.96,13.69l.64,1.71.64-1.71h.37v2.03h-.26v-1.69h0l-.63,1.69h-.23l-.63-1.69h0v1.69h-.26v-2.03h.37Z"/>
  </g>
  <g>
    <path class="st7" d="M34.97,37.3c0,.76-.3,1.24-.9,1.47l1.2,1.69h-1.3l-1.05-1.51h-.73v1.51h-1.05v-4.72h1.79c.73,0,1.26.12,1.57.37.31.25.47.65.47,1.2ZM33.7,37.86c.13-.12.2-.3.2-.56s-.07-.43-.2-.52c-.14-.09-.37-.14-.71-.14h-.79v1.4h.77c.36,0,.61-.06.74-.18Z"/>
    <path class="st7" d="M39.45,35.74v.94h-2.35v.97h2.11v.9h-2.11v.98h2.42v.93h-3.48v-4.72h3.4Z"/>
    <path class="st7" d="M41.57,36.68c-.1.08-.15.19-.15.33s.06.25.19.33c.12.08.41.18.86.29.45.11.8.28,1.04.5s.37.54.37.97-.16.77-.48,1.03c-.32.26-.73.39-1.25.39-.75,0-1.42-.28-2.02-.83l.63-.77c.51.45.98.67,1.41.67.19,0,.35-.04.46-.12s.17-.2.17-.34-.06-.25-.18-.34-.35-.17-.7-.25c-.55-.13-.95-.3-1.21-.51-.25-.21-.38-.54-.38-.99s.16-.79.48-1.04c.32-.24.72-.36,1.21-.36.32,0,.63.05.95.16.32.11.59.26.82.46l-.53.77c-.41-.31-.83-.47-1.27-.47-.18,0-.31.04-.42.12Z"/>
    <path class="st7" d="M46.73,36.65v3.81h-1.05v-3.81h-1.34v-.91h3.73v.91h-1.34Z"/>
    <path class="st7" d="M52.68,39.8c-.48.47-1.06.7-1.76.7s-1.29-.23-1.76-.7-.72-1.05-.72-1.74.24-1.27.72-1.74,1.06-.7,1.76-.7,1.29.23,1.76.7.72,1.05.72,1.74-.24,1.27-.72,1.74ZM52.32,38.07c0-.42-.14-.78-.41-1.08-.27-.3-.6-.45-1-.45s-.73.15-1,.45c-.27.3-.41.66-.41,1.08s.14.78.41,1.07c.27.29.6.44,1,.44s.73-.15,1-.44.41-.65.41-1.07Z"/>
    <path class="st7" d="M58.12,37.3c0,.76-.3,1.24-.9,1.47l1.2,1.69h-1.3l-1.05-1.51h-.73v1.51h-1.05v-4.72h1.79c.73,0,1.26.12,1.57.37.31.25.47.65.47,1.2ZM56.85,37.86c.13-.12.2-.3.2-.56s-.07-.43-.2-.52c-.14-.09-.37-.14-.71-.14h-.79v1.4h.77c.36,0,.61-.06.74-.18Z"/>
    <path class="st7" d="M62.56,40.46l-.44-1.02h-1.98l-.44,1.02h-1.12l2.04-4.72h1.02l2.04,4.72h-1.12ZM61.13,37.14l-.59,1.37h1.18l-.59-1.37Z"/>
    <path class="st7" d="M65.88,36.65v3.81h-1.05v-3.81h-1.34v-.91h3.73v.91h-1.34Z"/>
    <path class="st7" d="M67.99,35.74h1.05v4.72h-1.05v-4.72Z"/>
    <path class="st7" d="M74.17,39.8c-.48.47-1.06.7-1.76.7s-1.29-.23-1.76-.7-.72-1.05-.72-1.74.24-1.27.72-1.74,1.06-.7,1.76-.7,1.29.23,1.76.7.72,1.05.72,1.74-.24,1.27-.72,1.74ZM73.82,38.07c0-.42-.14-.78-.41-1.08-.27-.3-.6-.45-1-.45s-.73.15-1,.45c-.27.3-.41.66-.41,1.08s.14.78.41,1.07c.27.29.6.44,1,.44s.73-.15,1-.44.41-.65.41-1.07Z"/>
    <path class="st7" d="M79.08,35.74h1.05v4.72h-1.05l-2.25-2.96v2.96h-1.05v-4.72h.99l2.32,3.04v-3.04Z"/>
    <path class="st7" d="M85.84,40.05c-.38.31-.82.46-1.31.46s-.91-.13-1.23-.38c-.32-.25-.48-.6-.48-1.04,0-.5.33-.93.99-1.32-.15-.18-.26-.34-.32-.48-.07-.14-.1-.3-.1-.48,0-.38.14-.68.42-.88.28-.2.6-.3.98-.3s.7.1.97.29c.27.2.4.47.4.82,0,.44-.32.85-.97,1.23.25.32.44.54.57.68.11-.21.2-.43.26-.66l.79.57c-.1.28-.23.55-.38.79l.67.66-.67.63-.59-.6ZM84.02,39.51c.13.1.3.16.51.16s.43-.1.67-.3c-.33-.35-.61-.66-.85-.95-.35.22-.52.45-.52.7,0,.16.07.29.2.39ZM84.78,36.42c-.1,0-.19.03-.27.1-.08.07-.12.16-.12.28s.09.29.27.52c.34-.18.51-.35.51-.51,0-.13-.04-.23-.12-.3-.08-.07-.17-.1-.27-.1Z"/>
    <path class="st7" d="M92.99,35.74v.94h-2.35v.97h2.11v.9h-2.11v.98h2.42v.93h-3.48v-4.72h3.4Z"/>
    <path class="st7" d="M97.31,35.74h1.05v4.72h-1.05l-2.25-2.96v2.96h-1.05v-4.72h.99l2.32,3.04v-3.04Z"/>
    <path class="st7" d="M101.27,38.74l1.2-3.01h1.14l-1.9,4.72h-.89l-1.9-4.72h1.14l1.2,3.01Z"/>
    <path class="st7" d="M104.17,35.74h1.05v4.72h-1.05v-4.72Z"/>
    <path class="st7" d="M110.21,37.3c0,.76-.3,1.24-.9,1.47l1.2,1.69h-1.3l-1.05-1.51h-.73v1.51h-1.05v-4.72h1.79c.73,0,1.26.12,1.57.37.31.25.47.65.47,1.2ZM108.95,37.86c.13-.12.2-.3.2-.56s-.07-.43-.2-.52c-.14-.09-.37-.14-.71-.14h-.79v1.4h.77c.36,0,.61-.06.74-.18Z"/>
    <path class="st7" d="M115.22,39.8c-.48.47-1.06.7-1.76.7s-1.29-.23-1.76-.7c-.48-.47-.72-1.05-.72-1.74s.24-1.27.72-1.74c.48-.47,1.06-.7,1.76-.7s1.29.23,1.76.7.72,1.05.72,1.74-.24,1.27-.72,1.74ZM114.86,38.07c0-.42-.13-.78-.41-1.08-.27-.3-.6-.45-1-.45s-.73.15-1,.45c-.27.3-.41.66-.41,1.08s.14.78.41,1.07.6.44,1,.44.73-.15,1-.44c.27-.29.41-.65.41-1.07Z"/>
    <path class="st7" d="M120.13,35.74h1.05v4.72h-1.05l-2.25-2.96v2.96h-1.05v-4.72h.99l2.32,3.04v-3.04Z"/>
    <path class="st7" d="M126.57,37.48l-1.28,2.58h-.63l-1.27-2.58v2.97h-1.05v-4.72h1.42l1.22,2.59,1.22-2.59h1.42v4.72h-1.05v-2.97Z"/>
    <path class="st7" d="M132.19,35.74v.94h-2.35v.97h2.11v.9h-2.11v.98h2.42v.93h-3.48v-4.72h3.4Z"/>
    <path class="st7" d="M136.5,35.74h1.05v4.72h-1.05l-2.25-2.96v2.96h-1.05v-4.72h.99l2.32,3.04v-3.04Z"/>
    <path class="st7" d="M140.72,36.65v3.81h-1.05v-3.81h-1.34v-.91h3.73v.91h-1.34Z"/>
    <path class="st7" d="M145.84,40.46l-.44-1.02h-1.98l-.44,1.02h-1.12l2.04-4.72h1.02l2.04,4.72h-1.12ZM144.42,37.14l-.59,1.37h1.18l-.59-1.37Z"/>
    <path class="st7" d="M147.51,40.46v-4.72h1.05v3.78h2.01v.94h-3.07Z"/>
  </g>
  <text class="st0" transform="translate(35.25 55.83)"><tspan x="0" y="0">A FLEET RESPONSE COMPANY</tspan></text>
</svg>