<svg xmlns="http://www.w3.org/2000/svg" width="163.612" height="163.612" viewBox="0 0 163.612 163.612"><g transform="translate(-174.528 -329.149)"><circle cx="81.806" cy="81.806" r="81.806" transform="translate(174.528 329.149)" fill="#fff"/><circle cx="66.371" cy="66.371" r="66.371" transform="translate(189.963 344.585)" fill="#fb6a00"/><path d="M65.432,40.908a2.488,2.488,0,0,1-1.263-.344L-1.266,2.156a2.5,2.5,0,0,1-.891-3.422,2.5,2.5,0,0,1,3.422-.891L66.7,36.251a2.5,2.5,0,0,1-1.268,4.656Z" transform="translate(256.334 404.853)" fill="#fff"/><path d="M189.517,445.761a2.5,2.5,0,0,1-1.248-4.668l65.565-37.687V343.234a2.5,2.5,0,1,1,5,0v61.62a2.5,2.5,0,0,1-1.254,2.167L190.76,445.428A2.488,2.488,0,0,1,189.517,445.761Z" fill="#fff"/><path d="M298.493,402.063v1.1a.069.069,0,0,1-.069.07H290.74a1.7,1.7,0,0,0,.1-.564v-8.051a1.7,1.7,0,0,0-.567-1.267l-2.784-2.484a1.7,1.7,0,0,0-2.26,0l-2.79,2.485a1.7,1.7,0,0,0-.568,1.268v8.05a1.674,1.674,0,0,0,.1.564h-8.034a.069.069,0,0,1-.069-.07V386.375a.068.068,0,0,1,.023-.052l12.252-10.907a.068.068,0,0,1,.092,0L289,377.875a8.534,8.534,0,0,1,3.185-2.045l-4.638-4.137a2.118,2.118,0,0,0-2.734,0l-8.012,7.142a.07.07,0,0,1-.116-.052v-1.76a.77.77,0,0,0-.768-.769h-2.066a.77.77,0,0,0-.768.769v5.1a.069.069,0,0,1-.024.052l-5.726,5.1a1.622,1.622,0,0,0,.374,2.706,2.216,2.216,0,0,0,2.5-.373l.875-.779a.07.07,0,0,1,.116.052v15.242a1.784,1.784,0,0,0,1.784,1.784h26.4a1.784,1.784,0,0,0,1.784-1.784V401.73a6.208,6.208,0,0,1-2.081.363C298.887,402.093,298.689,402.082,298.493,402.063Z" fill="#fff" fill-rule="evenodd"/><path d="M289.006,385.8a3.946,3.946,0,0,0,.621.829s1.467,2.087,10.3,2.075a30.475,30.475,0,0,0,5.393-.347,13.66,13.66,0,0,0,3.2-1.218c-.266-.09-.327-.135-.383-.127a30.979,30.979,0,0,1-9.246-.09c-3.285-.541-4.358-.224-8.684-2.65a.664.664,0,0,0-.864.019A1.113,1.113,0,0,0,289.006,385.8Z" fill="#fff" fill-rule="evenodd"/><path d="M310.977,386.41c-.142-.083-.29-.166-.493-.283a3.52,3.52,0,0,1-2.181,2.439,35.478,35.478,0,0,1-3.508,1.4,21.712,21.712,0,0,1-6.933.749c-.88-.009-1.76,0-2.64,0a6.75,6.75,0,0,0,3.153,1.152,19.622,19.622,0,0,0,6.958-.314,12.924,12.924,0,0,0,4.169-1.481,4.734,4.734,0,0,0,1.991-1.965C311.978,387.125,311.925,386.955,310.977,386.41Z" fill="#fff" fill-rule="evenodd"/><path d="M307.226,392.454a.755.755,0,0,0-1.138.219,2.073,2.073,0,0,1-1.724.844c-1.988.019-3.98.066-5.959-.074a33.186,33.186,0,0,1-3.975-.743l-.087.1a8.474,8.474,0,0,0,.88.687A14.31,14.31,0,0,0,304,395.6a7.8,7.8,0,0,0,2.583-.836,2.813,2.813,0,0,0,1.036-1.176A.815.815,0,0,0,307.226,392.454Z" fill="#fff" fill-rule="evenodd"/><path d="M296.058,395.657c1.054,2.741,5.75,3.534,7.746,1.27a35.525,35.525,0,0,1-3.872-.237A38.241,38.241,0,0,1,296.058,395.657Z" fill="#fff" fill-rule="evenodd"/><path d="M299.657,400.267c.694-.154,1.374-1.149.262-1.049s-3.038-.8-3.387-1.562c0,0-.45.981-.181,1.413A6.032,6.032,0,0,0,299.657,400.267Z" fill="#fff" fill-rule="evenodd"/><path d="M312.836,381.622c0-.032,0-.064-.008-.1s-.011-.078-.019-.117-.006-.049-.012-.077c-.011-.051-.027-.1-.042-.155l-.009-.033c-.8-2.672-7.1-6.815-14.886-5.349-7.974,1.5-8.154,3.842-8.154,3.842v0a2.412,2.412,0,0,0,.217,2.212,4.935,4.935,0,0,0,2.215,2.012,26.028,26.028,0,0,0,3.166,1.246,23.2,23.2,0,0,0,13.811.1,6.162,6.162,0,0,0,3.351-2.188A2.067,2.067,0,0,0,312.836,381.622Zm-4.961,1.356a5.752,5.752,0,0,1-1.028.481,15.741,15.741,0,0,1-11.723-.613,4.6,4.6,0,0,1-1.166-.8,1.842,1.842,0,0,1,.055-2.9,3.087,3.087,0,0,1,.353-.247c2.448-1.083,5.1-1.164,8.643-1.008a10.843,10.843,0,0,1,4.044,1.041,8.719,8.719,0,0,1,1.043.718C309.457,380.736,309.375,382.119,307.875,382.978Z" fill="#fff" fill-rule="evenodd"/><path d="M203.541,387.326a2.356,2.356,0,0,0,2.657-.4l.931-.828a.073.073,0,0,1,.122.055v11.588a1.4,1.4,0,0,1,1.718.455,7.318,7.318,0,0,0,1.129,1.246V383.49a.073.073,0,0,1,.025-.055l13.032-11.6a.073.073,0,0,1,.1,0l13.008,11.591a.073.073,0,0,1,.025.055v15.508c.251-.242.466-.476.641-.682a1.386,1.386,0,0,1,2.205.107v-12.43l1.2,1.067a2.132,2.132,0,0,0,1.454.544,2.106,2.106,0,0,0,1.443-.544,1.684,1.684,0,0,0,0-2.6l-18.583-16.575a2.254,2.254,0,0,0-2.908,0l-8.522,7.6a.074.074,0,0,1-.123-.055v-1.873a.82.82,0,0,0-.817-.817h-2.2a.819.819,0,0,0-.817.817v5.421a.077.077,0,0,1-.025.055l-6.091,5.43A1.725,1.725,0,0,0,203.541,387.326Z" fill="#fff"/><path d="M222.4,398.09a1.4,1.4,0,0,1,1.063-.488,1.385,1.385,0,0,1,1.118.561,7.388,7.388,0,0,0,3.571,2.584v-8.491a1.8,1.8,0,0,0-.6-1.347l-2.962-2.643a1.805,1.805,0,0,0-2.4,0l-2.968,2.643a1.807,1.807,0,0,0-.605,1.349V400.7A9.222,9.222,0,0,0,222.4,398.09Z" fill="#fff"/><path d="M244.81,402.045c-1.4.08-4.815-.061-6.272-3.065a.591.591,0,0,0-.988-.146,8.546,8.546,0,0,1-6.375,3.2,8.854,8.854,0,0,1-7.253-3.378.581.581,0,0,0-.907-.028,9.545,9.545,0,0,1-7.88,3.361,7.964,7.964,0,0,1-6.83-3.309.581.581,0,0,0-.916-.036,9.192,9.192,0,0,1-7.007,3.377.594.594,0,0,0-.618.586v1.076a.587.587,0,0,0,.587.588h44.494a.587.587,0,0,0,.587-.588v-1.048A.586.586,0,0,0,244.81,402.045Z" fill="#fff"/><path d="M231.093,390.857a4,4,0,0,0-.654,1.009,2.373,2.373,0,0,0,2.846,3.248,2.035,2.035,0,0,0,1.56-2.386,2.711,2.711,0,0,0-.907-1.5,2,2,0,0,1-.775-1.858A6.311,6.311,0,0,0,231.093,390.857Z" fill="#fff"/><path d="M219.6,383.829a1.55,1.55,0,0,0-.519-.858,1.146,1.146,0,0,1-.443-1.062,3.605,3.605,0,0,0-1.182.851,2.279,2.279,0,0,0-.374.576,1.3,1.3,0,0,0,.216,1.452,1.312,1.312,0,0,0,1.41.4A1.165,1.165,0,0,0,219.6,383.829Z" fill="#fff"/><path d="M213.76,390.622a3.6,3.6,0,0,0-1.183.85,2.284,2.284,0,0,0-.374.577,1.356,1.356,0,0,0,1.627,1.856,1.162,1.162,0,0,0,.891-1.363,1.547,1.547,0,0,0-.518-.858A1.142,1.142,0,0,1,213.76,390.622Z" fill="#fff"/><path d="M281.4,440.486l-23.067-20.575a2.8,2.8,0,0,0-3.61,0l-10.579,9.431a.091.091,0,0,1-.152-.068v-2.325a1.018,1.018,0,0,0-1.015-1.015h-2.728a1.017,1.017,0,0,0-1.014,1.015v6.729a.092.092,0,0,1-.031.068l-7.561,6.74a2.142,2.142,0,0,0,.494,3.573,2.926,2.926,0,0,0,3.3-.493l1.156-1.028a.091.091,0,0,1,.152.068v20.125a2.356,2.356,0,0,0,2.356,2.356H273.96a2.356,2.356,0,0,0,2.356-2.356v-20.34l1.487,1.324a2.646,2.646,0,0,0,1.8.676,2.616,2.616,0,0,0,1.792-.676A2.091,2.091,0,0,0,281.4,440.486Zm-8.616,20.976a.092.092,0,0,1-.092.092H240.368a.092.092,0,0,1-.092-.092V439.3a.089.089,0,0,1,.031-.068l16.176-14.4a.092.092,0,0,1,.122,0l16.147,14.388a.089.089,0,0,1,.031.068Z" fill="#fff"/><path d="M263.491,441.88a6.43,6.43,0,0,1-2.546,5.236s.92-9.739-7.6-13.622c0,0,4.424,8.441-2.77,13.287.286-.225,1.8-1.749.344-7.92,0,0-.129.156-.336.441-1.015,1.394-3.963,5.952-3.425,11.229a8.83,8.83,0,0,0,5.722,7c-.942-2.392-2.53-8.329,3.264-11.472,0,0-2.5,5.151.53,7.992a7,7,0,0,0,3.562-4.718,10.383,10.383,0,0,1,.334,7.965,10.938,10.938,0,0,0,2.883-2.01c6.483-6.224,0-13.744,0-13.744A1.706,1.706,0,0,1,263.491,441.88Z" fill="#fff"/></g></svg>