<?xml version="1.0" encoding="UTF-8"?><svg id="Layer_1" xmlns="http://www.w3.org/2000/svg" viewBox="0 0 118.95 47.32"><defs><style>.cls-1{fill:#fff;}.cls-2{fill:#fff;}</style></defs><path class="cls-1" d="m21.74,46.77h-.89l-.17.51h-.54l.92-2.47h.47l.93,2.47h-.54l-.17-.51Zm-.76-.41h.62l-.31-.93-.31.93Z"/><path class="cls-1" d="m24.41,46.41v.87h-.51v-2.47h.96c.19,0,.35.03.49.1.14.07.25.16.33.29.08.13.11.27.11.43,0,.24-.08.43-.25.57s-.4.21-.69.21h-.45Zm0-.41h.46c.13,0,.24-.03.31-.1.07-.06.11-.15.11-.27s-.04-.22-.11-.29c-.07-.07-.17-.11-.3-.12h-.47v.78Z"/><path class="cls-1" d="m27.62,46.77h-.89l-.17.51h-.54l.92-2.47h.47l.93,2.47h-.54l-.17-.51Zm-.76-.41h.62l-.31-.93-.31.93Z"/><path class="cls-1" d="m29.76,46.38h-.41v.91h-.51v-2.47h.92c.29,0,.52.07.68.2.16.13.24.31.24.55,0,.17-.04.31-.11.42-.07.11-.18.2-.33.27l.54,1.01v.02h-.55l-.46-.91Zm-.41-.41h.41c.13,0,.23-.03.3-.1.07-.06.11-.15.11-.27s-.03-.21-.1-.28c-.07-.07-.17-.1-.3-.1h-.41v.74Z"/><path class="cls-1" d="m33.19,45.22h-.76v2.06h-.51v-2.06h-.75v-.41h2.01v.41Z"/><path class="cls-1" d="m35.74,47.28h-.51l-.99-1.63v1.63h-.51v-2.47h.51l.99,1.63v-1.63h.51v2.47Z"/><path class="cls-1" d="m37.96,46.21h-.98v.66h1.15v.41h-1.66v-2.47h1.65v.41h-1.14v.59h.98v.4Z"/><path class="cls-1" d="m39.65,46.38h-.41v.91h-.51v-2.47h.92c.29,0,.52.07.68.2.16.13.24.31.24.55,0,.17-.04.31-.11.42-.07.11-.18.2-.33.27l.54,1.01v.02h-.55l-.46-.91Zm-.41-.41h.41c.13,0,.23-.03.3-.1.07-.06.11-.15.11-.27s-.03-.21-.1-.28c-.07-.07-.17-.1-.3-.1h-.41v.74Z"/><path class="cls-1" d="m44.11,46.46c-.02.27-.12.48-.29.63-.18.15-.41.23-.7.23-.32,0-.57-.11-.75-.32-.18-.21-.27-.51-.27-.88v-.15c0-.24.04-.45.13-.63.08-.18.2-.32.36-.42.16-.1.34-.15.54-.15.29,0,.52.08.69.23.17.15.28.37.3.64h-.51c-.01-.16-.06-.28-.13-.35s-.19-.11-.35-.11c-.17,0-.3.06-.38.18-.08.12-.13.31-.13.57v.19c0,.27.04.46.12.59s.21.19.38.19c.16,0,.27-.04.35-.11.08-.07.12-.18.13-.33h.51Z"/><path class="cls-1" d="m46.74,46.1c0,.24-.04.46-.13.64-.09.18-.21.32-.37.42-.16.1-.34.15-.55.15s-.39-.05-.55-.15-.29-.24-.37-.42-.13-.39-.13-.63v-.12c0-.24.04-.46.13-.64.09-.18.21-.33.37-.43.16-.1.34-.15.55-.15s.39.05.55.15c.16.1.28.24.37.43.09.19.13.4.13.64v.11Zm-.52-.11c0-.26-.05-.46-.14-.59-.09-.13-.23-.2-.4-.2s-.3.07-.4.2c-.09.13-.14.33-.14.59v.12c0,.25.05.45.14.59.09.14.23.21.4.21s.3-.07.39-.2c.09-.13.14-.33.14-.59v-.12Z"/><path class="cls-1" d="m48.05,44.81l.64,1.79.63-1.79h.67v2.47h-.51v-.68l.05-1.17-.67,1.84h-.35l-.67-1.84.05,1.17v.68h-.51v-2.47h.67Z"/><path class="cls-1" d="m51.22,46.41v.87h-.51v-2.47h.96c.19,0,.35.03.49.1.14.07.25.16.33.29.08.13.11.27.11.43,0,.24-.08.43-.25.57s-.4.21-.69.21h-.45Zm0-.41h.46c.13,0,.24-.03.31-.1.07-.06.11-.15.11-.27s-.04-.22-.11-.29c-.07-.07-.17-.11-.3-.12h-.47v.78Z"/><path class="cls-1" d="m54.43,46.77h-.89l-.17.51h-.54l.92-2.47h.47l.93,2.47h-.54l-.17-.51Zm-.76-.41h.62l-.31-.93-.31.93Z"/><path class="cls-1" d="m57.67,47.28h-.51l-.99-1.63v1.63h-.51v-2.47h.51l.99,1.63v-1.63h.51v2.47Z"/><path class="cls-1" d="m59.25,45.92l.51-1.11h.56l-.81,1.58v.9h-.52v-.9l-.81-1.58h.56l.51,1.11Z"/><path class="cls-1" d="m63.8,46.1c0,.24-.04.46-.13.64s-.21.32-.37.42c-.16.1-.34.15-.55.15s-.39-.05-.55-.15-.29-.24-.37-.42-.13-.39-.13-.63v-.12c0-.24.04-.46.13-.64.09-.18.21-.33.37-.43.16-.1.34-.15.55-.15s.39.05.55.15c.16.1.28.24.37.43.09.19.13.4.13.64v.11Zm-.52-.11c0-.26-.05-.46-.14-.59-.09-.13-.23-.2-.4-.2s-.3.07-.4.2c-.09.13-.14.33-.14.59v.12c0,.25.05.45.14.59.09.14.23.21.4.21s.3-.07.39-.2c.09-.13.14-.33.14-.59v-.12Z"/><path class="cls-1" d="m65.93,46.27h-.98v1.01h-.51v-2.47h1.61v.41h-1.1v.64h.98v.41Z"/><path class="cls-1" d="m69.05,46.27h-.98v1.01h-.51v-2.47h1.61v.41h-1.1v.64h.98v.41Z"/><path class="cls-1" d="m70.23,46.87h1.08v.41h-1.59v-2.47h.51v2.06Z"/><path class="cls-1" d="m73.34,46.21h-.98v.66h1.15v.41h-1.66v-2.47h1.65v.41h-1.15v.59h.98v.4Z"/><path class="cls-1" d="m75.61,46.21h-.98v.66h1.15v.41h-1.66v-2.47h1.65v.41h-1.15v.59h.98v.4Z"/><path class="cls-1" d="m78.26,45.22h-.76v2.06h-.51v-2.06h-.75v-.41h2.01v.41Z"/><path class="cls-1" d="m80.68,46.38h-.41v.91h-.51v-2.47h.92c.29,0,.52.07.68.2.16.13.24.31.24.55,0,.17-.04.31-.11.42-.07.11-.18.2-.33.27l.54,1.01v.02h-.55l-.46-.91Zm-.41-.41h.41c.13,0,.23-.03.3-.1.07-.06.11-.15.11-.27s-.03-.21-.1-.28c-.07-.07-.17-.1-.31-.1h-.41v.74Z"/><path class="cls-1" d="m83.74,46.21h-.98v.66h1.15v.41h-1.66v-2.47h1.65v.41h-1.15v.59h.98v.4Z"/><path class="cls-1" d="m85.76,46.63c0-.1-.03-.17-.1-.22-.07-.05-.19-.11-.37-.16-.18-.06-.32-.11-.42-.17-.28-.15-.42-.36-.42-.61,0-.13.04-.25.11-.36.07-.1.18-.19.32-.25s.3-.09.47-.09.33.03.47.1c.14.06.25.15.32.27.08.12.11.25.11.4h-.51c0-.11-.04-.2-.11-.26s-.17-.09-.3-.09-.22.03-.29.08c-.07.05-.1.12-.1.21,0,.08.04.15.12.2.08.05.2.11.36.15.29.09.5.2.63.32.13.13.2.29.2.48,0,.21-.08.38-.24.5-.16.12-.38.18-.65.18-.19,0-.36-.03-.52-.1s-.28-.16-.36-.29-.12-.26-.12-.42h.51c0,.27.16.41.49.41.12,0,.22-.02.28-.07.07-.05.1-.12.1-.21Z"/><path class="cls-1" d="m87.41,46.41v.87h-.51v-2.47h.96c.19,0,.35.03.49.1s.25.16.33.29c.08.13.11.27.11.43,0,.24-.08.43-.25.57s-.4.21-.69.21h-.45Zm0-.41h.46c.13,0,.24-.03.31-.1.07-.06.11-.15.11-.27s-.04-.22-.11-.29c-.07-.07-.17-.11-.3-.12h-.47v.78Z"/><path class="cls-1" d="m91.43,46.1c0,.24-.04.46-.13.64s-.21.32-.37.42c-.16.1-.34.15-.55.15s-.39-.05-.55-.15-.29-.24-.37-.42-.13-.39-.13-.63v-.12c0-.24.04-.46.13-.64.09-.18.21-.33.37-.43.16-.1.34-.15.55-.15s.39.05.55.15c.16.1.28.24.37.43.09.19.13.4.13.64v.11Zm-.52-.11c0-.26-.05-.46-.14-.59-.09-.13-.23-.2-.4-.2s-.3.07-.4.2c-.09.13-.14.33-.14.59v.12c0,.25.05.45.14.59.09.14.23.21.4.21s.3-.07.39-.2c.09-.13.14-.33.14-.59v-.12Z"/><path class="cls-1" d="m94.08,47.28h-.51l-.99-1.63v1.63h-.51v-2.47h.51l.99,1.63v-1.63h.51v2.47Z"/><path class="cls-1" d="m96.08,46.63c0-.1-.03-.17-.1-.22-.07-.05-.19-.11-.37-.16-.18-.06-.32-.11-.42-.17-.28-.15-.42-.36-.42-.61,0-.13.04-.25.11-.36.07-.1.18-.19.32-.25.14-.06.3-.09.47-.09s.33.03.47.1c.14.06.25.15.32.27.08.12.11.25.11.4h-.51c0-.11-.04-.2-.11-.26s-.17-.09-.3-.09-.22.03-.29.08c-.07.05-.1.12-.1.21,0,.08.04.15.12.2.08.05.2.11.36.15.29.09.5.2.63.32.13.13.2.29.2.48,0,.21-.08.38-.24.5-.16.12-.38.18-.65.18-.19,0-.36-.03-.52-.1s-.28-.16-.36-.29-.12-.26-.12-.42h.51c0,.27.16.41.49.41.12,0,.22-.02.28-.07.07-.05.1-.12.1-.21Z"/><path class="cls-1" d="m98.71,46.21h-.98v.66h1.15v.41h-1.66v-2.47h1.65v.41h-1.15v.59h.98v.4Z"/><rect class="cls-1" y="41.71" width="117.4" height=".15"/><path class="cls-2" d="m.07.47h4.31c2.78,0,4.67.13,5.65.38.98.26,1.73.68,2.24,1.26.51.58.83,1.23.96,1.95.13.72.19,2.12.19,4.22v7.76c0,1.99-.09,3.32-.28,3.99s-.51,1.2-.98,1.57c-.47.38-1.04.64-1.73.79-.68.15-1.72.23-3.09.23H.07V.47Zm5.77,3.79v14.58c.83,0,1.34-.17,1.53-.5.19-.33.29-1.24.29-2.72V7.01c0-1-.03-1.65-.1-1.93-.06-.28-.21-.49-.44-.62-.23-.13-.66-.2-1.29-.2Z"/><path class="cls-2" d="m25.54.47l3.3,22.17h-5.89l-.31-3.98h-2.06l-.35,3.98h-5.96L17.2.47h8.33Zm-3.06,14.26c-.29-2.51-.58-5.62-.88-9.31-.59,4.25-.96,7.35-1.11,9.31h1.98Z"/><path class="cls-2" d="m35.58.47v17.73h3.51v4.44h-9.27V.47h5.77Z"/><path class="cls-2" d="m61.2.47l-2.57,22.17h-7.2c-.66-3.41-1.24-7.28-1.74-11.63-.23,1.86-.77,5.74-1.61,11.63h-7.16L38.34.47h5.6l.61,7.74.59,7.48c.21-3.87.74-8.94,1.59-15.21h5.99c.08.65.29,3.09.63,7.31l.64,8.44c.33-5.37.86-10.62,1.61-15.75h5.6Z"/><path class="cls-2" d="m75.51,13.45c0,2.23-.05,3.81-.16,4.73-.11.93-.43,1.77-.99,2.54-.55.77-1.3,1.36-2.24,1.77-.94.41-2.04.62-3.29.62s-2.25-.19-3.2-.58-1.7-.97-2.28-1.75c-.58-.78-.92-1.62-1.03-2.53-.11-.91-.16-2.51-.16-4.79v-3.79c0-2.23.05-3.8.16-4.73.1-.93.43-1.77.99-2.54.55-.77,1.3-1.36,2.24-1.77.94-.41,2.04-.62,3.29-.62s2.25.19,3.2.58c.94.39,1.7.97,2.28,1.75.58.78.92,1.62,1.03,2.53.11.91.16,2.51.16,4.79v3.79Zm-5.77-7.29c0-1.03-.06-1.69-.17-1.98-.11-.29-.35-.43-.71-.43-.3,0-.53.12-.69.35-.16.23-.24.92-.24,2.06v10.35c0,1.29.05,2.08.16,2.38s.35.45.73.45.64-.17.75-.52c.11-.35.16-1.17.16-2.48V6.16Z"/><path class="cls-2" d="m77.66.47h4.08c2.72,0,4.56.11,5.53.31.96.21,1.75.75,2.36,1.61.61.86.91,2.24.91,4.13,0,1.73-.22,2.89-.64,3.48-.43.59-1.27.95-2.53,1.07,1.14.28,1.91.66,2.3,1.14.39.47.64.91.73,1.31.1.4.14,1.49.14,3.28v5.85h-5.35v-7.37c0-1.19-.09-1.92-.28-2.2-.19-.28-.68-.43-1.47-.43v10h-5.77V.47Zm5.77,3.79v4.93c.65,0,1.1-.09,1.36-.27.26-.18.39-.76.39-1.73v-1.22c0-.7-.13-1.16-.38-1.38-.25-.22-.71-.33-1.38-.33Z"/><path class="cls-2" d="m104.38.47v4.44h-3.42v17.73h-5.76V4.9h-3.41V.47h12.6Z"/><path class="cls-2" d="m118.95.47v22.17h-5.76v-9.31h-1.73v9.31h-5.77V.47h5.77v7.93h1.73V.47h5.76Z"/><path class="cls-2" d="m11.72,37h-3.09l-3.92-5.41c-.29.01-.53.02-.71.02-.07,0-.15,0-.24,0s-.17,0-.26-.01v3.36c0,.73.08,1.18.24,1.36.22.25.54.38.97.38h.45v.32H.2v-.32h.44c.49,0,.84-.16,1.05-.48.12-.18.18-.59.18-1.25v-7.48c0-.73-.08-1.18-.24-1.36-.22-.25-.55-.38-.99-.38H.2v-.32h4.22c1.23,0,2.14.09,2.72.27.58.18,1.08.51,1.49.99s.61,1.05.61,1.72c0,.71-.23,1.33-.7,1.85-.46.52-1.18.89-2.16,1.11l2.39,3.32c.55.76,1.02,1.27,1.41,1.52.39.25.9.41,1.54.48v.32Zm-8.22-5.95c.11,0,.2,0,.28,0s.15,0,.2,0c1.1,0,1.94-.24,2.5-.72s.84-1.09.84-1.83-.23-1.31-.68-1.76c-.45-.45-1.05-.68-1.8-.68-.33,0-.78.05-1.34.16v4.82Z"/><path class="cls-2" d="m15.22,26.06v4.58h2.54c.66,0,1.1-.1,1.32-.3.3-.26.46-.72.49-1.38h.32v4.03h-.32c-.08-.56-.16-.93-.24-1.08-.1-.2-.27-.36-.5-.47-.23-.11-.59-.17-1.08-.17h-2.54v3.82c0,.51.02.82.07.93.05.11.12.2.24.26.11.07.33.1.65.1h1.96c.65,0,1.13-.05,1.43-.14s.58-.27.85-.54c.35-.35.71-.88,1.08-1.6h.34l-1,2.9h-8.92v-.32h.41c.27,0,.53-.06.78-.2.18-.09.31-.23.37-.41.07-.18.1-.55.1-1.12v-7.52c0-.73-.07-1.19-.22-1.36-.2-.23-.55-.34-1.02-.34h-.41v-.32h8.92l.13,2.54h-.33c-.12-.61-.25-1.03-.4-1.26-.15-.23-.36-.4-.65-.52-.23-.09-.63-.13-1.2-.13h-3.18Z"/><path class="cls-2" d="m30.26,25.16v4h-.32c-.1-.77-.29-1.38-.55-1.84-.26-.46-.64-.82-1.13-1.08-.49-.27-1-.4-1.52-.4-.59,0-1.08.18-1.47.54-.39.36-.58.77-.58,1.23,0,.35.12.67.37.96.35.43,1.19,1,2.52,1.71,1.08.58,1.82,1.03,2.21,1.34s.7.68.91,1.1c.21.42.32.86.32,1.32,0,.88-.34,1.63-1.02,2.27s-1.55.95-2.63.95c-.34,0-.65-.03-.95-.08-.18-.03-.54-.13-1.1-.31-.55-.18-.91-.27-1.05-.27s-.26.04-.34.13-.14.26-.18.53h-.32v-3.97h.32c.15.83.35,1.45.6,1.86.25.41.63.76,1.15,1.03.51.27,1.08.41,1.69.41.71,0,1.27-.19,1.69-.56s.62-.82.62-1.33c0-.28-.08-.57-.23-.86-.16-.29-.4-.56-.73-.81-.22-.17-.83-.53-1.82-1.09s-1.69-1-2.11-1.33c-.42-.33-.74-.69-.95-1.09-.22-.4-.32-.84-.32-1.32,0-.83.32-1.55.96-2.15.64-.6,1.45-.9,2.43-.9.61,0,1.27.15,1.96.45.32.14.54.21.67.21.15,0,.27-.04.36-.13.09-.09.17-.27.23-.53h.32Z"/><path class="cls-2" d="m42.08,25.43l.13,2.71h-.32c-.06-.48-.15-.82-.26-1.02-.18-.33-.41-.57-.7-.73s-.68-.23-1.16-.23h-1.63v8.84c0,.71.08,1.16.23,1.33.22.24.55.36,1,.36h.4v.32h-4.91v-.32h.41c.49,0,.84-.15,1.04-.44.13-.18.19-.6.19-1.25v-8.84h-1.39c-.54,0-.92.04-1.15.12-.3.11-.55.32-.76.62-.21.31-.34.72-.38,1.25h-.32l.14-2.71h9.45Z"/><path class="cls-2" d="m48.73,25.16c1.5,0,2.8.57,3.91,1.71,1.1,1.14,1.65,2.57,1.65,4.27s-.55,3.22-1.66,4.38c-1.11,1.16-2.45,1.74-4.03,1.74s-2.93-.57-4.02-1.7c-1.08-1.13-1.63-2.6-1.63-4.4s.63-3.34,1.88-4.5c1.09-1.01,2.39-1.51,3.9-1.51Zm-.16.62c-1.04,0-1.87.38-2.49,1.15-.78.96-1.17,2.36-1.17,4.2s.4,3.34,1.21,4.36c.62.77,1.44,1.16,2.46,1.16,1.09,0,1.98-.42,2.69-1.27s1.06-2.19,1.06-4.01c0-1.98-.39-3.46-1.17-4.43-.63-.77-1.49-1.16-2.59-1.16Z"/><path class="cls-2" d="m66.77,37h-3.09l-3.92-5.41c-.29.01-.53.02-.71.02-.07,0-.15,0-.24,0s-.17,0-.26-.01v3.36c0,.73.08,1.18.24,1.36.22.25.54.38.97.38h.45v.32h-4.96v-.32h.44c.49,0,.84-.16,1.05-.48.12-.18.18-.59.18-1.25v-7.48c0-.73-.08-1.18-.24-1.36-.22-.25-.55-.38-.99-.38h-.44v-.32h4.22c1.23,0,2.14.09,2.72.27.58.18,1.08.51,1.49.99s.61,1.05.61,1.72c0,.71-.23,1.33-.7,1.85-.46.52-1.18.89-2.16,1.11l2.39,3.32c.55.76,1.02,1.27,1.41,1.52.39.25.9.41,1.54.48v.32Zm-8.22-5.95c.11,0,.2,0,.28,0s.15,0,.2,0c1.1,0,1.94-.24,2.5-.72s.84-1.09.84-1.83-.23-1.31-.68-1.76c-.45-.45-1.05-.68-1.8-.68-.33,0-.78.05-1.34.16v4.82Z"/><path class="cls-2" d="m74.62,33.13h-4.48l-.79,1.83c-.19.45-.29.78-.29,1.01,0,.18.08.33.25.47s.53.22,1.09.26v.32h-3.64v-.32c.48-.09.8-.2.94-.33.29-.27.61-.83.97-1.66l4.07-9.53h.3l4.03,9.63c.32.77.62,1.28.88,1.51.26.23.63.36,1.1.39v.32h-4.57v-.32c.46-.02.77-.1.93-.23.16-.13.24-.29.24-.48,0-.25-.11-.65-.34-1.19l-.7-1.66Zm-.24-.63l-1.96-4.68-2.02,4.68h3.98Z"/><path class="cls-2" d="m87.42,25.43l.13,2.71h-.32c-.06-.48-.15-.82-.26-1.02-.18-.33-.41-.57-.7-.73s-.68-.23-1.16-.23h-1.63v8.84c0,.71.08,1.16.23,1.33.22.24.55.36,1,.36h.4v.32h-4.91v-.32h.41c.49,0,.84-.15,1.04-.44.13-.18.19-.6.19-1.25v-8.84h-1.39c-.54,0-.92.04-1.15.12-.3.11-.55.32-.76.62-.21.31-.34.72-.38,1.25h-.32l.14-2.71h9.45Z"/><path class="cls-2" d="m93.38,36.69v.32h-4.96v-.32h.41c.48,0,.82-.14,1.04-.42.14-.18.2-.62.2-1.31v-7.48c0-.59-.04-.97-.11-1.16-.06-.14-.17-.26-.35-.37-.25-.14-.51-.21-.78-.21h-.41v-.32h4.96v.32h-.42c-.47,0-.82.14-1.03.42-.14.18-.21.62-.21,1.32v7.48c0,.59.04.97.11,1.16.06.14.18.26.36.37.24.14.5.2.78.2h.42Z"/><path class="cls-2" d="m100.2,25.16c1.5,0,2.8.57,3.91,1.71,1.1,1.14,1.65,2.57,1.65,4.27s-.55,3.22-1.66,4.38c-1.11,1.16-2.45,1.74-4.03,1.74s-2.93-.57-4.02-1.7c-1.08-1.13-1.63-2.6-1.63-4.4s.63-3.34,1.88-4.5c1.09-1.01,2.39-1.51,3.9-1.51Zm-.16.62c-1.04,0-1.87.38-2.49,1.15-.78.96-1.17,2.36-1.17,4.2s.4,3.34,1.21,4.36c.62.77,1.44,1.16,2.46,1.16,1.09,0,1.98-.42,2.69-1.27s1.06-2.19,1.06-4.01c0-1.98-.39-3.46-1.17-4.43-.63-.77-1.49-1.16-2.59-1.16Z"/><path class="cls-2" d="m106.2,25.43h3.14l7.08,8.68v-6.68c0-.71-.08-1.15-.24-1.33-.21-.24-.54-.36-1-.36h-.4v-.32h4.03v.32h-.41c-.49,0-.84.15-1.04.44-.13.18-.19.6-.19,1.25v9.76h-.31l-7.63-9.32v7.13c0,.71.08,1.16.23,1.33.22.24.55.36,1,.36h.41v.32h-4.03v-.32h.4c.49,0,.85-.15,1.05-.44.13-.18.19-.6.19-1.25v-8.05c-.34-.39-.59-.65-.76-.78-.17-.13-.43-.24-.76-.35-.17-.05-.42-.08-.75-.08v-.32Z"/></svg>